<svg style="display: none;">

    <symbol id="react" viewBox="0 0 128 128">
        <g>
	        <path d="M128,64c0-8.5-10.6-16.5-26.9-21.5c3.8-16.6,2.1-29.8-5.3-34C94.1,7.5,92.2,7,90,7v5.8c1.2,0,2.2,0.2,3,0.7c3.5,2,5.1,9.8,3.9,19.8c-0.3,2.5-0.8,5-1.3,7.7c-5.1-1.3-10.7-2.2-16.6-2.8c-3.5-4.8-7.2-9.2-10.9-13c8.5-7.9,16.5-12.2,21.9-12.2V7c-7.2,0-16.6,5.1-26.1,14C54.5,12.2,45.1,7.1,37.9,7.1v5.8c5.4,0,13.4,4.3,21.9,12.2c-3.7,3.8-7.3,8.2-10.8,13c-5.9,0.6-11.5,1.6-16.6,2.9c-0.6-2.6-1-5.1-1.4-7.6c-1.2-10,0.3-17.7,3.8-19.8c0.8-0.5,1.8-0.7,3-0.7V7.1c-2.2,0-4.2,0.5-5.9,1.5c-7.3,4.2-9,17.4-5.2,33.9C10.6,47.5,0,55.6,0,64c0,8.5,10.6,16.5,26.9,21.5c-3.8,16.6-2.1,29.8,5.3,34c1.7,1,3.7,1.5,5.9,1.5c7.2,0,16.6-5.1,26.1-14c9.5,8.8,18.9,13.9,26.1,13.9c2.2,0,4.2-0.5,5.9-1.5c7.3-4.2,9-17.4,5.2-33.9C117.4,80.5,128,72.5,128,64L128,64z M94,46.6c-1,3.4-2.2,6.8-3.5,10.3c-1.1-2.1-2.2-4.2-3.4-6.3c-1.2-2.1-2.5-4.1-3.8-6.1C87,45.1,90.6,45.8,94,46.6L94,46.6z M82.1,74.4c-2,3.5-4.1,6.9-6.3,10c-3.9,0.3-7.8,0.5-11.8,0.5c-3.9,0-7.9-0.2-11.7-0.5c-2.2-3.1-4.3-6.4-6.3-9.9c-2-3.4-3.8-6.9-5.4-10.4c1.6-3.5,3.4-7,5.4-10.4c2-3.5,4.1-6.9,6.3-10c3.9-0.3,7.8-0.5,11.8-0.5c3.9,0,7.9,0.2,11.7,0.5c2.2,3.1,4.3,6.4,6.3,9.9c2,3.4,3.8,6.9,5.4,10.4C85.8,67.5,84,71,82.1,74.4L82.1,74.4z M90.5,71c1.4,3.5,2.6,7,3.6,10.4c-3.4,0.8-7,1.5-10.7,2.1c1.3-2,2.6-4.1,3.8-6.2C88.3,75.2,89.4,73.1,90.5,71L90.5,71z M64.1,98.8c-2.4-2.5-4.9-5.3-7.3-8.3c2.3,0.1,4.7,0.2,7.2,0.2c2.5,0,4.9-0.1,7.3-0.2C68.9,93.5,66.5,96.3,64.1,98.8z M44.6,83.5c-3.7-0.5-7.3-1.2-10.7-2.1c1-3.4,2.2-6.8,3.5-10.3c1.1,2.1,2.2,4.2,3.4,6.3C42.1,79.5,43.4,81.5,44.6,83.5z M63.9,29.2c2.4,2.5,4.9,5.3,7.3,8.3c-2.3-0.1-4.7-0.2-7.2-0.2c-2.5,0-4.9,0.1-7.3,0.2C59.1,34.5,61.5,31.7,63.9,29.2z M44.6,44.5c-1.3,2-2.6,4.1-3.8,6.2c-1.2,2.1-2.3,4.2-3.4,6.3c-1.4-3.5-2.6-7-3.6-10.4C37.3,45.8,40.9,45.1,44.6,44.5L44.6,44.5z M21,77.2C11.8,73.3,5.8,68.1,5.8,64c0-4.1,6-9.3,15.2-13.2c2.2-1,4.7-1.8,7.2-2.6c1.5,5.1,3.4,10.4,5.9,15.9c-2.4,5.4-4.3,10.7-5.8,15.8C25.7,79.1,23.3,78.2,21,77.2L21,77.2z M35,114.5c-3.5-2-5.1-9.8-3.9-19.8c0.3-2.5,0.8-5,1.3-7.7c5.1,1.3,10.7,2.2,16.6,2.8c3.5,4.8,7.2,9.2,10.9,13c-8.5,7.9-16.5,12.2-21.9,12.2C36.8,115.2,35.8,114.9,35,114.5L35,114.5z M96.9,94.6c1.2,10-0.3,17.7-3.8,19.8c-0.8,0.5-1.8,0.7-3,0.7c-5.4,0-13.4-4.3-21.9-12.2c3.7-3.8,7.3-8.2,10.8-13c5.9-0.6,11.5-1.6,16.6-2.9C96.2,89.7,96.6,92.2,96.9,94.6z M107,77.2c-2.2,1-4.7,1.8-7.2,2.6c-1.5-5.1-3.4-10.4-5.9-15.9c2.4-5.4,4.3-10.7,5.8-15.8c2.6,0.8,5,1.7,7.3,2.7c9.2,3.9,15.2,9.1,15.2,13.2C122.2,68.1,116.2,73.3,107,77.2L107,77.2z"/>
	        <circle cx="64" cy="64" r="11.9"/>
	        <path d="M90,7"/>
        </g>
    </symbol>

    <symbol id="vscode" viewBox="0 0 128 128">
        <g>
    	    <path id="path951" d="M96,0v109.9L0,95.7L96,128l32-13.3V15.3l0,0l0,0v-2L96,0z"/>
    	    <path d="M62.4,18.7L33,47.8L15.3,34.5L8,36.9l18,17.8L8,72.5l7.3,2.4L33,61.6h0l29.4,29.1L80,83.2v-57L62.4,18.7z M62.4,69.9L42.2,54.7l20.2-15.2V69.9z"/>
        </g>
    </symbol>

    <symbol id="sass" viewBox="0 0 128 128">
        <path d="M110.2,71.2c-4.5,0-8.3,1.1-11.6,2.7c-1.2-2.4-2.4-4.5-2.6-6c-0.2-1.8-0.5-2.9-0.2-5.1c0.3-2.2,1.5-5.2,1.5-5.4c0-0.2-0.3-1.3-2.9-1.4c-2.6,0-4.8,0.5-5.1,1.2s-0.7,2.2-1.1,3.8c-0.4,2.3-5.1,10.7-7.8,15.1c-0.9-1.7-1.6-3.2-1.8-4.4c-0.2-1.8-0.5-2.9-0.2-5.1c0.3-2.2,1.5-5.2,1.5-5.4c0-0.2-0.3-1.3-2.9-1.4c-2.6,0-4.8,0.5-5.1,1.2c-0.3,0.7-0.5,2.3-1.1,3.8c-0.5,1.5-6.8,15.5-8.4,19.1c-0.8,1.8-1.6,3.3-2.1,4.3l0,0c0,0,0,0.1-0.1,0.2c-0.4,0.9-0.7,1.3-0.7,1.3s0,0,0,0c-0.4,0.6-0.7,1.2-0.9,1.2c-0.1,0-0.4-1.7,0-4c0.9-4.8,3.2-12.4,3.1-12.6c0-0.1,0.4-1.4-1.4-2.1c-1.8-0.7-2.5,0.4-2.6,0.4c-0.2,0-0.3,0.4-0.3,0.4s2-8.5-3.9-8.5c-3.7,0-8.8,4-11.3,7.7c-1.6,0.9-5,2.7-8.6,4.7c-1.4,0.8-2.8,1.5-4.1,2.3c-0.1-0.1-0.2-0.2-0.3-0.3C22.3,71.3,9,65.9,9.6,55.6c0.2-3.7,1.5-13.6,25.4-25.5c19.7-9.7,35.4-7,38.1-1.1c3.9,8.5-8.4,24.3-28.7,26.6c-7.8,0.9-11.8-2.1-12.9-3.2c-1.1-1.2-1.2-1.2-1.6-1c-0.7,0.4-0.2,1.4,0,2c0.6,1.6,3.1,4.4,7.3,5.8c3.7,1.2,12.8,1.9,23.8-2.4c12.3-4.8,22-18,19.1-29.1c-2.8-11.3-21.5-15-39.2-8.7C30.4,22.8,19,28.7,10.8,36.4C1,45.5-0.5,53.4,0.1,56.7c2.3,11.8,18.5,19.5,25,25.1c-0.3,0.2-0.6,0.4-0.9,0.5C21,84,8.6,90.4,5.5,97.3C2,105,6.1,110.6,8.8,111.4c8.3,2.3,16.9-1.8,21.5-8.7c4.6-6.9,4-15.8,1.9-19.9c0,0,0-0.1-0.1-0.1c0.8-0.5,1.7-1,2.5-1.5c1.7-1,3.3-1.9,4.7-2.6c-0.8,2.2-1.4,4.8-1.7,8.5c-0.4,4.4,1.4,10.1,3.8,12.3c1.1,1,2.3,1,3.1,1c2.8,0,4-2.3,5.4-5c1.7-3.3,3.2-7.2,3.2-7.2s-1.9,10.4,3.2,10.4c1.9,0,3.8-2.4,4.6-3.7c0,0,0,0,0,0s0-0.1,0.1-0.2c0.2-0.3,0.3-0.5,0.3-0.5s0,0,0,0c0.7-1.3,2.4-4.3,4.9-9.2c3.2-6.4,6.3-14.3,6.3-14.3s0.3,1.9,1.2,5.2c0.6,1.9,1.7,4,2.7,6c-0.7,1.1-1.2,1.6-1.2,1.6s0,0,0,0c-0.6,0.8-1.3,1.7-2,2.5c-2.5,3-5.6,6.5-6,7.5c-0.5,1.2-0.4,2.1,0.6,2.8c0.7,0.5,1.9,0.6,3.1,0.5c2.3-0.2,3.9-0.7,4.7-1.1c1.2-0.4,2.7-1.1,4-2.1c2.5-1.8,4-4.5,3.9-8c-0.1-1.9-0.7-3.8-1.5-5.6c0.2-0.3,0.4-0.7,0.7-1c4-5.8,7-12.1,7-12.1s0.3,1.9,1.2,5.2c0.5,1.6,1.4,3.4,2.3,5.1c-3.7,3-6,6.5-6.8,8.8c-1.5,4.3-0.3,6.2,1.8,6.6c1,0.2,2.4-0.3,3.4-0.7c1.3-0.4,2.9-1.1,4.3-2.2c2.5-1.8,4.9-4.4,4.8-7.9c-0.1-1.6-0.5-3.2-1.1-4.7c3.2-1.3,7.2-2,12.4-1.4c11.1,1.3,13.3,8.3,12.9,11.2c-0.4,2.9-2.8,4.5-3.5,5c-0.8,0.5-1,0.7-1,1c0.1,0.5,0.5,0.5,1.1,0.4c0.9-0.2,5.8-2.4,6.1-7.7C128.3,78.6,121.8,71.1,110.2,71.2z M24.4,100.1c-3.7,4-8.8,5.5-11.1,4.3c-2.4-1.4-1.4-7.3,3.1-11.6c2.8-2.6,6.3-5,8.7-6.5c0.5-0.3,1.3-0.8,2.3-1.4c0.2-0.1,0.3-0.1,0.3-0.1l0,0c0.2-0.1,0.4-0.2,0.6-0.4C29.8,90.5,28.2,95.9,24.4,100.1z M51.3,81.8C50,85,47.3,93,45.6,92.6c-1.4-0.4-2.3-6.5-0.3-12.5c1-3,3.1-6.6,4.4-8c2-2.2,4.2-3,4.8-2.1C55.2,71.2,52,79.9,51.3,81.8z M73.4,92.5c-0.5,0.3-1.1,0.5-1.3,0.3c-0.2-0.1,0.2-0.5,0.2-0.5s2.8-3,3.9-4.3c0.6-0.8,1.4-1.7,2.2-2.8c0,0.1,0,0.2,0,0.3C78.4,89.1,75,91.5,73.4,92.5z M90.6,88.6c-0.4-0.3-0.3-1.2,1-4.1c0.5-1.1,1.7-3.1,3.8-4.9c0.2,0.7,0.4,1.5,0.4,2.2C95.7,86.2,92.5,87.9,90.6,88.6z"/>
    </symbol>

    <symbol id="github" viewBox="0 0 128 128">
        <path d="M64,1.6c-35.4,0-64,28.6-64,64c0,28.3,18.3,52.2,43.8,60.7c3.2,0.6,4.4-1.4,4.4-3c0-1.5-0.1-6.6-0.1-11.9c-16.1,3-20.2-3.9-21.5-7.5c-0.7-1.8-3.8-7.5-6.6-9c-2.2-1.2-5.4-4.2-0.1-4.2c5-0.1,8.6,4.6,9.8,6.6c5.8,9.7,15,7,18.6,5.3c0.6-4.2,2.2-7,4.1-8.6c-14.2-1.6-29.1-7.1-29.1-31.6c0-7,2.5-12.7,6.6-17.2c-0.6-1.6-2.9-8.2,0.6-17c0,0,5.4-1.7,17.6,6.6c5.1-1.4,10.6-2.2,16-2.2c5.4,0,10.9,0.7,16,2.2c12.2-8.3,17.6-6.6,17.6-6.6c3.5,8.8,1.3,15.4,0.6,17c4.1,4.5,6.6,10.2,6.6,17.2c0,24.6-15,30-29.2,31.6c2.3,2,4.3,5.8,4.3,11.8c0,8.6-0.1,15.4-0.1,17.6c0,1.7,1.2,3.7,4.4,3c25.3-8.5,43.6-32.5,43.6-60.7C128,30.2,99.4,1.6,64,1.6z"/>
    </symbol>

    <symbol id="bootstrap" viewBox="0 0 128 128">
        <g>
	        <path d="M106.5,1H21.5C10.3,1,1.3,10.1,1.3,21.3v85.5c0,11.2,9.1,20.3,20.3,20.3h84.9c11.2,0,20.3-9.1,20.3-20.3V21.3C126.7,10.1,117.7,1,106.5,1z M89.4,97.5c-5.1,3.7-13,5.5-23.5,5.5H32.2V25h30.5c11,0,18.9,1.6,23.8,4.9c4.9,3.3,7.4,8.5,7.4,15.7c0,3.8-0.9,7-2.7,9.7c-1.8,2.6-4.4,4.6-7.8,5.9l0,0c4.4,1.3,7.7,3.6,10.1,7c2.4,3.4,3.6,7.5,3.6,12.4C97.1,88.2,94.6,93.8,89.4,97.5z"/>
	        <path d="M63.8,55.2c3.2,0,5.6-0.7,7.3-2.1c1.7-1.4,2.5-3.5,2.5-6.2c0-2.7-0.8-4.7-2.5-6.1c-1.7-1.4-4.1-2.1-7.3-2.1H52.6v16.5L63.8,55.2L63.8,55.2z"/>
	        <path d="M73.7,71.5c-2-1.7-5.1-2.6-9.2-2.6H52.6v20.4h11.9c4.1,0,7.1-0.9,9.2-2.6c2.1-1.7,3.1-4.3,3.1-7.7C76.8,75.7,75.8,73.2,73.7,71.5z"/>
        </g>
    </symbol>

    <symbol id="html5" viewBox="0 0 128 128">
        <g style='opacity:0.75'>
	        <polygon points="81.4,66.3 64,66.3 64,88.8 79.7,84.6"/>
	        <polygon points="64,9.5 64,23.6 99.3,23.6 98,37.7 64,37.7 64,52.1 96.8,52.1 92.9,95.5 64,103.5 64,118.2 101.3,107.8 110.1,9.5"/>
        </g>
        <g>
	        <polygon points="64,37.7 63.9,37.7 44,37.7 45.3,52.1 63.9,52.1 64,52.1 	"/>
	        <path d="M7.6,0l10.3,115.2L63.9,128l46.3-12.8L120.4,0H7.6z M101.3,107.8L64,118.2v-14.6l-29-8.1l-2-22.2h14.2l1,11.3L64,88.9l0,0V66.3h-0.1v0H32.4l-3.9-42.7h35.4H64V9.5h46.1L101.3,107.8z"/>
        </g>
    </symbol>
        
</svg>