<svg xmlns="http://www.w3.org/2000/svg" x="0px" y="0px" viewBox="0 0 128 128" style="enable-background:new 0 0 128 128;" xml:space="preserve" class='svg-default-fill'>
<path d="M122.5,83l-9.6-9.6l9.8-9.8c1.1-1.1,1.1-3,0-4.2L65.1,1.9c-1.1-1.1-3-1.1-4.2,0L35.5,27.2c-1.1,1.1-1.1,3,0,4.2l57.6,57.6
	c1.1,1.2,3,1.2,4.2,0l7.9-7.9l5.8,5.8l-16.2,16.2L61.3,69.6c-1-1-2.4-1.6-3.8-1.6s-2.8,0.6-3.8,1.6l-6.9,6.9
	c-2.9-2.8-7.5-2.8-10.4,0.1L6,106.8c-2.9,2.9-2.9,7.6,0,10.4l7.6,7.6c2.9,2.9,7.6,2.9,10.4,0l30.3-30.3c2.9-2.9,2.9-7.5,0.1-10.4
	l3.1-3.1L91,114.6c1.1,1.1,2.5,1.6,3.8,1.6s2.8-0.5,3.8-1.6l23.9-23.9c1-1,1.6-2.4,1.6-3.8C124.1,85.5,123.5,84.1,122.5,83z"/>
</svg>